M*A*S*H - MASH *1970*[BluRay][1080p][ENG, POL]

General information:
Country: USA
Release: 25 January 1970
Genre: Comedy, War, Drama 
Director: Robert Altman
Screenplay: Ring Lardner Jr.
Original Music: Johnny Mandel 
Cinematography by: Harold E. Stine 
Duration: 1h 55mn
Language: English, Polish
Subtitles: English, Polish
Rating: 7.4/10 - 5317 votes 

Cast:
Donald Sutherland  ...  Hawkeye Pierce  
Elliott Gould  ...  Trapper John McIntyre  
Tom Skerritt  ...  Duke Forrest  
Sally Kellerman  ...  'Hot Lips' O'Houlihan  
Robert Duvall  ...  Maj. Frank Burns  
Roger Bowen  ...  Col. Henry Blake  
Rene Auberjonois  ...  Father John Mulcahy  
David Arkin  ...  Sgt. Major Vollmer  
Jo Ann Pflug  ...  Lt. 'Dish'  
Gary Burghoff  ...  Corporal 'Radar' O'Reilly  
Fred Williamson  ...  Dr. Oliver 'Spearchucker' Jones  
Michael Murphy  ...  'Me Lai' Marston  
Indus Arthur  ...  Lt. Leslie  
Ken Prymus  ...  PFC. Seidman  
Bobby Troup  ...  Sgt. Gorman  

Plot:
The staff of a Korean War field hospital use humor and hijinks to keep their sanity in the face of the horror of war. 

Specifications:
General
Format                           : Matroska
Overall bit rate                 : 9 116 Kbps

Video
Format                           : AVC
Format/Info                      : Advanced Video Codec
Format profile                   : High@L4.0
Format settings, CABAC           : Yes
Format settings, ReFrames        : 3 frames
Format settings, GOP             : M=4, N=16
Muxing mode                      : Container profile=Unknown@4.0
Codec ID                         : V_MPEG4/ISO/AVC
Bit rate                         : 8 251 Kbps
Width                            : 1 920 pixels
Height                           : 1 080 pixels
Display aspect ratio             : 16:9
Frame rate                       : 23.976 fps

Audio 1
Format                           : AC-3
Format/Info                      : Audio Coding 3
Mode extension                   : CM (complete main)
Codec ID                         : A_AC3
Bit rate mode                    : Constant
Bit rate                         : 640 Kbps
Channel(s)                       : 6 channels
Channel positions                : Front: L C R, Side: L R, LFE
Sampling rate                    : 48.0 KHz
Stream size                      : 531 MiB (7%)
Title                            : English

Audio 2
Format                           : AC-3
Format/Info                      : Audio Coding 3
Mode extension                   : CM (complete main)
Codec ID                         : A_AC3
Bit rate mode                    : Constant
Bit rate                         : 224 Kbps
Channel(s)                       : 2 channels
Channel positions                : Front: L R
Sampling rate                    : 48.0 KHz
Stream size                      : 186 MiB (2%)
Title                            : Polish
Language                         : Polish

Text 1
Format                           : UTF-8
Codec ID                         : S_TEXT/UTF8
Codec ID/Info                    : UTF-8 Plain Text
Title                            : English

Text 2
Format                           : UTF-8
Codec ID                         : S_TEXT/UTF8
Codec ID/Info                    : UTF-8 Plain Text
Title                            : Polish
Language                         : Polish
